<svg xmlns="http://www.w3.org/2000/svg" width="67.606" height="60" viewBox="0 0 67.606 60">
  <g id="Logo" transform="translate(25 -139.951)">
    <ellipse id="Ellipse_2" data-name="Ellipse 2" cx="30.492" cy="30" rx="30.492" ry="30" transform="translate(-25 139.951)" fill="#702fff"/>
    <path id="Union_1" data-name="Union 1" d="M0,15.132A15.256,15.256,0,0,1,15.376,0,15.4,15.4,0,0,1,29.064,8.231c.147.134,3.739,3.386,6.667,3.386,2.99,0,4.809-2.269,6.24-2.984s10.5-3.534,10.5,6.743S41.817,21.763,40.71,21.087s-1.989-2.343-4.979-2.343c-2.923,0-6.508,3.147-6.666,3.287a15.4,15.4,0,0,1-13.689,8.233A15.256,15.256,0,0,1,0,15.132Z" transform="translate(-9.868 155.091)" fill="#ffcb5d"/>
  </g>
</svg>
