<svg xmlns="http://www.w3.org/2000/svg" width="365" height="365" viewBox="0 0 365 365"><g transform="translate(-436 -582)"><g transform="translate(-539 447)"><rect width="91" height="91" transform="translate(1157 318)" fill="#ffcb5d"/><rect width="91" height="91" transform="translate(1158 409)" fill="none"/><path d="M91,0h0a0,0,0,0,1,0,0V91a0,0,0,0,1,0,0H0a0,0,0,0,1,0,0v0A91,91,0,0,1,91,0Z" transform="translate(1158 226) rotate(-90)" fill="#ecf7ff"/><path d="M19.758,91.154H0A90.728,90.728,0,0,1,15.567,40.189a91.418,91.418,0,0,1,40.1-33.025A90.582,90.582,0,0,1,91.153,0V19.758a71.476,71.476,0,0,0-71.4,71.4Z" transform="translate(1340 226.154) rotate(180)" fill="#ffcb5d"/><g transform="translate(1157.693 226.153)"><rect width="91" height="92" transform="translate(0.307 -0.153)" fill="#702fff"/><ellipse cx="17.5" cy="18" rx="17.5" ry="18" transform="translate(28.307 27.847)" fill="#702fff"/></g><g transform="translate(1066.153 408.847)"><rect width="92" height="91" transform="translate(-0.153 0.153)" fill="#702fff"/><circle cx="18" cy="18" r="18" transform="translate(27.847 28.153)" fill="#fff"/></g><path d="M91,0h0a0,0,0,0,1,0,0V92a0,0,0,0,1,0,0H0a0,0,0,0,1,0,0V91A91,91,0,0,1,91,0Z" transform="translate(1249 226)" fill="#ffcb5d"/><path d="M91,0h0a0,0,0,0,1,0,0V91a0,0,0,0,1,0,0H0a0,0,0,0,1,0,0v0A91,91,0,0,1,91,0Z" transform="translate(975 409)" fill="#ffcb5d"/><path d="M92,0h0a0,0,0,0,1,0,0V92a0,0,0,0,1,0,0H0a0,0,0,0,1,0,0v0A92,92,0,0,1,92,0Z" transform="translate(1066 226)" fill="#ecf7ff"/><path d="M91,0h0a0,0,0,0,1,0,0V91a0,0,0,0,1,0,0H0a0,0,0,0,1,0,0v0A91,91,0,0,1,91,0Z" transform="translate(1340 409) rotate(90)" fill="#ecf7ff"/><path d="M19.758,91.154H0A90.728,90.728,0,0,1,15.567,40.189a91.418,91.418,0,0,1,40.1-33.025A90.582,90.582,0,0,1,91.153,0V19.758a71.476,71.476,0,0,0-71.4,71.4Z" transform="translate(1248.846 408.847) rotate(-90)" fill="#ecf7ff"/><path d="M19.758,91.154H0A90.728,90.728,0,0,1,15.567,40.189a91.418,91.418,0,0,1,40.1-33.025A90.582,90.582,0,0,1,91.153,0V19.758a71.476,71.476,0,0,0-71.4,71.4Z" transform="translate(1066.153 408.847) rotate(-90)" fill="#ffcb5d"/><path d="M19.758,91.154H0A90.728,90.728,0,0,1,15.567,40.189a91.418,91.418,0,0,1,40.1-33.025A90.582,90.582,0,0,1,91.153,0V19.758a71.476,71.476,0,0,0-71.4,71.4Z" transform="translate(1157.693 408.846)" fill="#ffcb5d"/><path d="M91.153,91.153H0v-.066L91.088,0h.066V91.153Z" transform="translate(1157.693 317.693)" fill="#702fff"/><path d="M91.153,0H0V.067L91.088,91.153h.066V0Z" transform="translate(1248.46 500) rotate(180)" fill="#702fff"/><path d="M91.153,0H0V.067L91.088,91.153h.066V0Z" transform="translate(1248.847 135)" fill="#702fff"/></g></g></svg>