<svg xmlns="http://www.w3.org/2000/svg" width="223.584" height="107.464" viewBox="0 0 223.584 107.464"><g transform="translate(-1379.634 -11278.595)"><g transform="translate(0 11283)"><g transform="translate(257 -250.731)"><g transform="translate(1012)"><path d="M115.513,266.291a2.78,2.78,0,0,0-.129-4.132,3.327,3.327,0,0,0-4.466.119,1.944,1.944,0,0,0-.284.337c.533,1.511,1.07,3,1.638,4.449a3.3,3.3,0,0,0,3.241-.773" fill="#505cfd" fill-rule="evenodd"/><path d="M128.592,247.124a2.835,2.835,0,0,0-4.059.119,2.955,2.955,0,0,0,.113,4.13,2.824,2.824,0,0,0,4.051-.119,2.966,2.966,0,0,0-.105-4.13" fill="#505cfd" fill-rule="evenodd"/><path d="M126.951,273.85a2.837,2.837,0,0,0-4.062.107,2.974,2.974,0,0,0,.113,4.137,2.841,2.841,0,0,0,4.062-.118,2.966,2.966,0,0,0-.113-4.126" fill="#505cfd" fill-rule="evenodd"/><path d="M141.7,258.823a2.823,2.823,0,0,0-4.056.107,2.971,2.971,0,0,0,.117,4.135,2.836,2.836,0,0,0,4.056-.119,2.95,2.95,0,0,0-.117-4.123" fill="#505cfd" fill-rule="evenodd"/><path d="M140.052,285.533a2.834,2.834,0,0,0-4.056.119,2.986,2.986,0,0,0,.117,4.139,2.857,2.857,0,0,0,4.064-.119,2.971,2.971,0,0,0-.125-4.139" fill="#505cfd" fill-rule="evenodd"/><path d="M153.166,270.513a2.815,2.815,0,0,0-4.049.107,2.96,2.96,0,0,0,.117,4.136,2.816,2.816,0,0,0,4.049-.131,2.931,2.931,0,0,0-.117-4.112" fill="#505cfd" fill-rule="evenodd"/><path d="M167.1,256.3a2.842,2.842,0,0,0-4.051.119,2.963,2.963,0,0,0,.113,4.133,2.832,2.832,0,0,0,4.055-.107,2.974,2.974,0,0,0-.117-4.145" fill="#505cfd" fill-rule="evenodd"/><path d="M153.174,297.22a2.849,2.849,0,0,0-4.063.119,2.959,2.959,0,0,0,.12,4.126,2.826,2.826,0,0,0,4.056-.106,2.979,2.979,0,0,0-.113-4.139" fill="#505cfd" fill-rule="evenodd"/><path d="M166.276,283.028a2.825,2.825,0,0,0-4.048.119,2.969,2.969,0,0,0,.109,4.133,2.844,2.844,0,0,0,4.056-.111,2.961,2.961,0,0,0-.117-4.141" fill="#505cfd" fill-rule="evenodd"/><path d="M179.393,268a2.834,2.834,0,0,0-4.055.118,2.975,2.975,0,0,0,.113,4.137,2.827,2.827,0,0,0,4.055-.132,2.946,2.946,0,0,0-.113-4.123" fill="#505cfd" fill-rule="evenodd"/><path d="M193.324,252.971a2.824,2.824,0,0,0-4.054.119,2.962,2.962,0,0,0,.117,4.131,2.831,2.831,0,0,0,4.054-.123,2.954,2.954,0,0,0-.117-4.127" fill="#505cfd" fill-rule="evenodd"/><path d="M164.644,308.913a2.833,2.833,0,0,0-4.055.119,2.953,2.953,0,0,0,.117,4.128,2.83,2.83,0,0,0,4.051-.107,2.972,2.972,0,0,0-.113-4.14" fill="#505cfd" fill-rule="evenodd"/><path d="M179.394,294.719a2.826,2.826,0,0,0-4.051.119,2.952,2.952,0,0,0,.117,4.133,2.826,2.826,0,0,0,4.05-.123,2.959,2.959,0,0,0-.116-4.129" fill="#505cfd" fill-rule="evenodd"/><path d="M191.69,279.689a2.833,2.833,0,0,0-4.057.119,2.961,2.961,0,0,0,.112,4.13,2.833,2.833,0,0,0,4.058-.119,2.965,2.965,0,0,0-.113-4.13" fill="#505cfd" fill-rule="evenodd"/><path d="M206.443,264.659a2.851,2.851,0,0,0-4.065.111,2.98,2.98,0,0,0,.121,4.141,2.825,2.825,0,0,0,4.049-.123,2.958,2.958,0,0,0-.105-4.129" fill="#505cfd" fill-rule="evenodd"/><path d="M219.544,250.465a2.834,2.834,0,0,0-4.049.107,2.98,2.98,0,0,0,.112,4.142,2.839,2.839,0,0,0,4.062-.12,2.956,2.956,0,0,0-.125-4.129" fill="#505cfd" fill-rule="evenodd"/><path d="M177.757,321.439a2.83,2.83,0,0,0-4.054.119,2.954,2.954,0,0,0,.113,4.128,2.818,2.818,0,0,0,4.05-.119,2.954,2.954,0,0,0-.109-4.128" fill="#505cfd" fill-rule="evenodd"/><path d="M190.863,306.411a2.818,2.818,0,0,0-4.048.119,2.956,2.956,0,0,0,.113,4.13,2.839,2.839,0,0,0,4.052-.111,2.962,2.962,0,0,0-.117-4.138" fill="#505cfd" fill-rule="evenodd"/><path d="M204.8,291.379a2.824,2.824,0,0,0-4.05.119,2.951,2.951,0,0,0,.112,4.131,2.83,2.83,0,0,0,4.055-.12,2.964,2.964,0,0,0-.117-4.13" fill="#505cfd" fill-rule="evenodd"/><path d="M217.913,277.184a2.832,2.832,0,0,0-4.056.119,2.955,2.955,0,0,0,.121,4.133,2.824,2.824,0,0,0,4.048-.123,2.961,2.961,0,0,0-.113-4.129" fill="#505cfd" fill-rule="evenodd"/><path d="M232.66,262.147a2.832,2.832,0,0,0-4.054.131,2.958,2.958,0,0,0,.117,4.126,2.835,2.835,0,0,0,4.058-.119,2.971,2.971,0,0,0-.121-4.138" fill="#505cfd" fill-rule="evenodd"/><path d="M245.775,247.123a2.836,2.836,0,0,0-4.058.119,2.969,2.969,0,0,0,.121,4.137,2.833,2.833,0,0,0,4.046-.119,2.961,2.961,0,0,0-.109-4.137" fill="#505cfd" fill-rule="evenodd"/><path d="M189.224,333.129a2.819,2.819,0,0,0-4.045.119,2.955,2.955,0,0,0,.109,4.131,2.833,2.833,0,0,0,4.057-.119,2.958,2.958,0,0,0-.121-4.131" fill="#505cfd" fill-rule="evenodd"/><path d="M203.979,318.1a2.834,2.834,0,0,0-4.057.119,2.969,2.969,0,0,0,.117,4.133,2.834,2.834,0,0,0,4.057-.123,2.96,2.96,0,0,0-.117-4.129" fill="#505cfd" fill-rule="evenodd"/><path d="M216.273,303.064a2.827,2.827,0,0,0-4.053.131,2.953,2.953,0,0,0,.112,4.126,2.826,2.826,0,0,0,4.05-.123,2.958,2.958,0,0,0-.109-4.134" fill="#505cfd" fill-rule="evenodd"/><path d="M231.023,288.875a2.833,2.833,0,0,0-4.052.111,2.974,2.974,0,0,0,.113,4.144,2.842,2.842,0,0,0,4.056-.123,2.963,2.963,0,0,0-.117-4.132" fill="#505cfd" fill-rule="evenodd"/><path d="M244.136,273.839a2.829,2.829,0,0,0-4.056.131,2.951,2.951,0,0,0,.121,4.126,2.829,2.829,0,0,0,4.052-.123,2.968,2.968,0,0,0-.117-4.134" fill="#505cfd" fill-rule="evenodd"/><path d="M258.89,258.811a2.821,2.821,0,0,0-4.053.131,2.948,2.948,0,0,0,.109,4.124,2.835,2.835,0,0,0,4.065-.131,2.968,2.968,0,0,0-.121-4.124" fill="#505cfd" fill-rule="evenodd"/><path d="M202.275,345.254a3.2,3.2,0,0,0-4.389.121,4.071,4.071,0,0,0-.384.488c1.908.693,3.815,1.311,5.714,1.912a2.883,2.883,0,0,0-.941-2.521" fill="#505cfd" fill-rule="evenodd"/><path d="M215.452,329.791a2.83,2.83,0,0,0-4.058.119,2.969,2.969,0,0,0,.117,4.131,2.835,2.835,0,0,0,4.058-.123,2.957,2.957,0,0,0-.117-4.127" fill="#505cfd" fill-rule="evenodd"/><path d="M229.387,315.6a2.834,2.834,0,0,0-4.056.107,2.969,2.969,0,0,0,.113,4.138,2.823,2.823,0,0,0,4.048-.118,2.949,2.949,0,0,0-.105-4.127" fill="#505cfd" fill-rule="evenodd"/><path d="M242.495,300.56a2.843,2.843,0,0,0-4.058.119,2.969,2.969,0,0,0,.113,4.125,2.824,2.824,0,0,0,4.057-.107,2.961,2.961,0,0,0-.112-4.137" fill="#505cfd" fill-rule="evenodd"/><path d="M257.244,285.526a2.845,2.845,0,0,0-4.051.119,2.978,2.978,0,0,0,.112,4.141,2.833,2.833,0,0,0,4.056-.123,2.962,2.962,0,0,0-.117-4.137" fill="#505cfd" fill-rule="evenodd"/><path d="M270.356,270.508a2.826,2.826,0,0,0-4.052.111,2.965,2.965,0,0,0,.117,4.134,2.826,2.826,0,0,0,4.052-.119,2.948,2.948,0,0,0-.117-4.126" fill="#505cfd" fill-rule="evenodd"/><path d="M285.105,256.309a2.824,2.824,0,0,0-4.05.119,2.954,2.954,0,0,0,.117,4.124,2.81,2.81,0,0,0,4.05-.119,2.94,2.94,0,0,0-.117-4.124" fill="#505cfd" fill-rule="evenodd"/><path d="M228.564,343.149a2.843,2.843,0,0,0-4.057.111,2.966,2.966,0,0,0,.116,4.13,2.821,2.821,0,0,0,4.057-.111,2.959,2.959,0,0,0-.116-4.13" fill="#505cfd" fill-rule="evenodd"/><path d="M241.683,328.127a2.834,2.834,0,0,0-4.062.107,2.97,2.97,0,0,0,.117,4.137,2.817,2.817,0,0,0,4.05-.131,2.941,2.941,0,0,0-.1-4.113" fill="#505cfd" fill-rule="evenodd"/><path d="M255.6,313.923a2.833,2.833,0,0,0-4.055.119,2.965,2.965,0,0,0,.117,4.128,2.824,2.824,0,0,0,4.058-.119,2.955,2.955,0,0,0-.12-4.128" fill="#505cfd" fill-rule="evenodd"/><path d="M268.72,298.89a2.834,2.834,0,0,0-4.05.119,2.962,2.962,0,0,0,.116,4.14,2.839,2.839,0,0,0,4.051-.119,2.972,2.972,0,0,0-.117-4.14" fill="#505cfd" fill-rule="evenodd"/><path d="M283.472,283.029a2.835,2.835,0,0,0-4.059.119,2.97,2.97,0,0,0,.117,4.131,2.834,2.834,0,0,0,4.058-.12,2.961,2.961,0,0,0-.116-4.13" fill="#505cfd" fill-rule="evenodd"/><path d="M296.58,268a2.823,2.823,0,0,0-4.051.119,2.965,2.965,0,0,0,.112,4.13,2.827,2.827,0,0,0,4.052-.119,2.946,2.946,0,0,0-.113-4.13" fill="#505cfd" fill-rule="evenodd"/><path d="M310.512,252.969a2.826,2.826,0,0,0-4.051.119,2.964,2.964,0,0,0,.113,4.13,2.823,2.823,0,0,0,4.05-.119,2.945,2.945,0,0,0-.112-4.13" fill="#505cfd" fill-rule="evenodd"/><path d="M237.607,353.79c.865,0,1.721-.009,2.561-.054a2.848,2.848,0,0,0-2.561.054" fill="#505cfd" fill-rule="evenodd"/><path d="M253.969,340.65a2.83,2.83,0,0,0-4.055.107,2.977,2.977,0,0,0,.116,4.143,2.837,2.837,0,0,0,4.048-.119,2.951,2.951,0,0,0-.109-4.131" fill="#505cfd" fill-rule="evenodd"/><path d="M268.727,325.613a2.839,2.839,0,0,0-4.06.119,2.964,2.964,0,0,0,.117,4.137,2.84,2.84,0,0,0,4.052-.119,2.976,2.976,0,0,0-.109-4.137" fill="#505cfd" fill-rule="evenodd"/><path d="M281.833,310.584a2.828,2.828,0,0,0-4.052.119,2.958,2.958,0,0,0,.109,4.128,2.835,2.835,0,0,0,4.064-.119,2.965,2.965,0,0,0-.121-4.128" fill="#505cfd" fill-rule="evenodd"/><path d="M294.949,296.389a2.831,2.831,0,0,0-4.056.119,2.958,2.958,0,0,0,.113,4.131,2.822,2.822,0,0,0,4.048-.12,2.956,2.956,0,0,0-.1-4.13" fill="#505cfd" fill-rule="evenodd"/><path d="M309.7,281.348a2.847,2.847,0,0,0-4.058.131,2.97,2.97,0,0,0,.113,4.13,2.828,2.828,0,0,0,4.053-.119,2.967,2.967,0,0,0-.108-4.142" fill="#505cfd" fill-rule="evenodd"/><path d="M322.81,266.329a2.831,2.831,0,0,0-4.056.119,2.962,2.962,0,0,0,.113,4.13,2.825,2.825,0,0,0,4.052-.119,2.955,2.955,0,0,0-.109-4.13" fill="#505cfd" fill-rule="evenodd"/><path d="M332.956,255.172a2.425,2.425,0,0,0,.386.339c.323-1.974.614-3.916.876-5.845a2.775,2.775,0,0,0-1.376.912,3.52,3.52,0,0,0,.114,4.594" fill="#505cfd" fill-rule="evenodd"/><path d="M276.159,335.9a3.742,3.742,0,0,0,.115,4.771c.005,0,0,0,.005.014,1.659-1.119,3.253-2.286,4.814-3.453a3.547,3.547,0,0,0-.772-1.47,2.685,2.685,0,0,0-4.162.138" fill="#505cfd" fill-rule="evenodd"/><path d="M294.948,322.274a2.836,2.836,0,0,0-4.059.119,2.962,2.962,0,0,0,.117,4.131,2.825,2.825,0,0,0,4.05-.119,2.959,2.959,0,0,0-.108-4.131" fill="#505cfd" fill-rule="evenodd"/><path d="M304.113,312.329a2.836,2.836,0,0,0,4.059-.119,2.958,2.958,0,0,0-.117-4.131,2.821,2.821,0,0,0-4.047.119,2.961,2.961,0,0,0,.105,4.131" fill="#505cfd" fill-rule="evenodd"/><path d="M317.07,293.211a3.334,3.334,0,0,0,.11,4.315,3,3,0,0,0,.762.57c.88-1.8,1.7-3.59,2.487-5.408a2.478,2.478,0,0,0-3.359.523" fill="#505cfd" fill-rule="evenodd"/></g></g></g></g></svg>