<svg xmlns="http://www.w3.org/2000/svg" width="17.004" height="17" viewBox="0 0 17.004 17"><path d="M8.5,6.379a4.359,4.359,0,1,0,4.359,4.359A4.352,4.352,0,0,0,8.5,6.379Zm0,7.192a2.834,2.834,0,1,1,2.834-2.834A2.839,2.839,0,0,1,8.5,13.571ZM14.052,6.2a1.017,1.017,0,1,1-1.017-1.017A1.014,1.014,0,0,1,14.052,6.2Zm2.887,1.032a5.031,5.031,0,0,0-1.373-3.562A5.064,5.064,0,0,0,12,2.3c-1.4-.08-5.61-.08-7.014,0A5.057,5.057,0,0,0,1.428,3.667,5.047,5.047,0,0,0,.054,7.229c-.08,1.4-.08,5.61,0,7.014A5.031,5.031,0,0,0,1.428,17.8,5.071,5.071,0,0,0,4.99,19.178c1.4.08,5.61.08,7.014,0A5.031,5.031,0,0,0,15.566,17.8a5.064,5.064,0,0,0,1.373-3.562c.08-1.4.08-5.607,0-7.01Zm-1.813,8.516a2.869,2.869,0,0,1-1.616,1.616c-1.119.444-3.774.341-5.011.341s-3.9.1-5.011-.341a2.869,2.869,0,0,1-1.616-1.616c-.444-1.119-.341-3.774-.341-5.011s-.1-3.9.341-5.011A2.869,2.869,0,0,1,3.487,4.111c1.119-.444,3.774-.341,5.011-.341s3.9-.1,5.011.341a2.869,2.869,0,0,1,1.616,1.616c.444,1.119.341,3.774.341,5.011S15.569,14.633,15.126,15.749Z" transform="translate(0.005 -2.238)" fill="#fff"/></svg>