<svg xmlns="http://www.w3.org/2000/svg" width="36" height="31.5" viewBox="0 0 36 31.5"><path d="M20.813,2.25h13.5A1.687,1.687,0,0,1,36,3.938v11.25a1.687,1.687,0,0,1-1.687,1.688h-13.5a1.687,1.687,0,0,1-1.687-1.687V3.938A1.687,1.687,0,0,1,20.813,2.25Zm-5.625,0H1.688A1.687,1.687,0,0,0,0,3.938v11.25a1.687,1.687,0,0,0,1.688,1.688h13.5a1.687,1.687,0,0,0,1.688-1.687V3.938A1.687,1.687,0,0,0,15.188,2.25ZM0,20.813v11.25A1.687,1.687,0,0,0,1.688,33.75h13.5a1.687,1.687,0,0,0,1.688-1.687V20.813a1.687,1.687,0,0,0-1.687-1.687H1.688A1.687,1.687,0,0,0,0,20.813ZM20.813,33.75h13.5A1.687,1.687,0,0,0,36,32.063V20.813a1.687,1.687,0,0,0-1.687-1.687h-13.5a1.687,1.687,0,0,0-1.687,1.688v11.25A1.687,1.687,0,0,0,20.813,33.75Z" transform="translate(0 -2.25)" fill="#54b5fb"/></svg>