<svg xmlns="http://www.w3.org/2000/svg" width="20.931" height="17" viewBox="0 0 20.931 17"><path d="M18.78,7.617c.013.186.013.372.013.558A12.122,12.122,0,0,1,6.588,20.381,12.123,12.123,0,0,1,0,18.455a8.874,8.874,0,0,0,1.036.053,8.591,8.591,0,0,0,5.326-1.833A4.3,4.3,0,0,1,2.351,13.7a5.41,5.41,0,0,0,.81.066,4.537,4.537,0,0,0,1.129-.146A4.29,4.29,0,0,1,.85,9.41V9.357A4.32,4.32,0,0,0,2.789,9.9,4.3,4.3,0,0,1,1.461,4.164a12.194,12.194,0,0,0,8.845,4.489,4.843,4.843,0,0,1-.106-.983,4.294,4.294,0,0,1,7.424-2.935A8.446,8.446,0,0,0,20.347,3.7a4.278,4.278,0,0,1-1.886,2.364,8.6,8.6,0,0,0,2.47-.664A9.221,9.221,0,0,1,18.78,7.617Z" transform="translate(0 -3.381)" fill="#fff"/></svg>