<svg xmlns="http://www.w3.org/2000/svg" width="256.868" height="181.424" viewBox="0 0 256.868 181.424"><g transform="translate(0 -0.353)"><g transform="translate(-1815 -11548)"><g transform="translate(0 11283)"><g transform="translate(257 -250.731)"><g transform="translate(1558 515.731)"><path d="M9.353,54.037c-20.194,35.017-5.42,83.875,22.673,112.132,14.513,14.512,34.058,16.747,53.47,15.178,12.583-.815,21.95-4.786,31.707-13.19,7.1-6.36,13.182-11.44,22.677-14.252,13.411-3.841,26.877-1.811,39.327,4.135,9.1,4.274,17.944,8.86,28.569,8.562,38.005-.126,66.336-58.38,36.857-86.19C228.917,65.454,207.877,54.587,186.566,54.6c-17.01-.149-25.861-4.744-36.962-17-11.165-12.832-20.125-26.5-36.678-33.159C98.143-1.838,46.041-9.553,9.353,54.037" fill="#49ccff" fill-rule="evenodd"/></g></g></g></g></g></svg>