<svg xmlns="http://www.w3.org/2000/svg" width="56.25" height="50" viewBox="0 0 56.25 50"><g transform="translate(-4 -197.327)"><ellipse cx="25.284" cy="25" rx="25.284" ry="25" transform="translate(4 197.327)" fill="#393186"/><path d="M0,12.561A12.679,12.679,0,0,1,12.793,0,12.82,12.82,0,0,1,24.182,6.833c.122.111,3.111,2.811,5.547,2.811,2.488,0,4-1.883,5.192-2.477s8.739-2.934,8.739,5.6-8.867,5.3-9.788,4.741-1.655-1.945-4.143-1.945c-2.432,0-5.415,2.612-5.547,2.728a12.821,12.821,0,0,1-11.389,6.834A12.679,12.679,0,0,1,0,12.561Z" transform="translate(16.59 210.09)" fill="#ffcc01"/></g></svg>