<svg xmlns="http://www.w3.org/2000/svg" width="945" height="945" viewBox="0 0 945 945"><g transform="translate(-975 -135)"><rect width="236" height="236" transform="translate(1447 608)" fill="#ffcb5d"/><rect width="236" height="236" transform="translate(1448 844)" fill="none"/><path d="M236,0h0a0,0,0,0,1,0,0V236a0,0,0,0,1,0,0H0a0,0,0,0,1,0,0v0A236,236,0,0,1,236,0Z" transform="translate(1448 371) rotate(-90)" fill="#ecf7ff"/><path d="M51.153,236H0a237.737,237.737,0,0,1,4.795-47.562,234.706,234.706,0,0,1,35.51-84.387,236.69,236.69,0,0,1,103.833-85.5,234.813,234.813,0,0,1,44.3-13.751A237.74,237.74,0,0,1,236,0V51.152A185.056,185.056,0,0,0,51.153,236Z" transform="translate(1920 371) rotate(180)" fill="#ffcb5d"/><g transform="translate(1447.545 371.318)"><rect width="236" height="237" transform="translate(0.455 -0.318)" fill="#702fff"/><ellipse cx="46.5" cy="47" rx="46.5" ry="47" transform="translate(72.455 71.682)" fill="#702fff"/></g><g transform="translate(1682.609 607.545)"><rect width="236" height="236" transform="translate(0.391 0.455)" fill="#702fff"/><circle cx="46.5" cy="46.5" r="46.5" transform="translate(72.391 72.455)" fill="#fff"/></g><g transform="translate(1211.318 843.772)"><rect width="237" height="236" transform="translate(-0.318 0.228)" fill="#702fff"/><ellipse cx="47" cy="46.5" rx="47" ry="46.5" transform="translate(71.682 72.228)" fill="#fff"/></g><path d="M236,0h0a0,0,0,0,1,0,0V237a0,0,0,0,1,0,0H0a0,0,0,0,1,0,0v-1A236,236,0,0,1,236,0Z" transform="translate(1684 371)" fill="#ffcb5d"/><path d="M236,0h0a0,0,0,0,1,0,0V236a0,0,0,0,1,0,0H0a0,0,0,0,1,0,0v0A236,236,0,0,1,236,0Z" transform="translate(975 844)" fill="#ffcb5d"/><path d="M237,0h0a0,0,0,0,1,0,0V237a0,0,0,0,1,0,0H0a0,0,0,0,1,0,0v0A237,237,0,0,1,237,0Z" transform="translate(1211 371)" fill="#ecf7ff"/><path d="M236,0h0a0,0,0,0,1,0,0V236a0,0,0,0,1,0,0H0a0,0,0,0,1,0,0v0A236,236,0,0,1,236,0Z" transform="translate(1920 844) rotate(90)" fill="#ecf7ff"/><path d="M51.153,236H0a237.737,237.737,0,0,1,4.795-47.562,234.706,234.706,0,0,1,35.51-84.387,236.69,236.69,0,0,1,103.833-85.5,234.813,234.813,0,0,1,44.3-13.751A237.74,237.74,0,0,1,236,0V51.152A185.056,185.056,0,0,0,51.153,236Z" transform="translate(1684 844) rotate(-90)" fill="#ecf7ff"/><path d="M51.153,236H0a237.737,237.737,0,0,1,4.795-47.562,234.706,234.706,0,0,1,35.51-84.387,236.69,236.69,0,0,1,103.833-85.5,234.813,234.813,0,0,1,44.3-13.751A237.74,237.74,0,0,1,236,0V51.152A185.056,185.056,0,0,0,51.153,236Z" transform="translate(1211 844) rotate(-90)" fill="#ffcb5d"/><path d="M51.153,236H0a237.737,237.737,0,0,1,4.795-47.562,234.706,234.706,0,0,1,35.51-84.387,236.69,236.69,0,0,1,103.833-85.5,234.813,234.813,0,0,1,44.3-13.751A237.74,237.74,0,0,1,236,0V51.152A185.056,185.056,0,0,0,51.153,236Z" transform="translate(1448 844)" fill="#ffcb5d"/><path d="M236,236H0v-.172L235.829,0H236V236Z" transform="translate(1448 608)" fill="#702fff"/><path d="M236,0H0V.173L235.829,236H236V0Z" transform="translate(1683 1080) rotate(180)" fill="#702fff"/><path d="M236,0H0V.173L235.829,236H236V0Z" transform="translate(1684 135)" fill="#702fff"/></g></svg>